Coordinates
version=1
nRows=5
nColumns=40
inDegrees=yes

Units are S.I. units (second, meters, Newtons, ...)
Angles are in degrees.

endheader
time	pelvis_tilt	pelvis_list	pelvis_rotation	pelvis_tx	pelvis_ty	pelvis_tz	hip_flexion_r	hip_adduction_r	hip_rotation_r	knee_angle_r	knee_angle_r_beta	ankle_angle_r	subtalar_angle_r	mtp_angle_r	hip_flexion_l	hip_adduction_l	hip_rotation_l	knee_angle_l	knee_angle_l_beta	ankle_angle_l	subtalar_angle_l	mtp_angle_l	lumbar_extension	lumbar_bending	lumbar_rotation	arm_flex_r	arm_add_r	arm_rot_r	elbow_flex_r	pro_sup_r	wrist_flex_r	wrist_dev_r	arm_flex_l	arm_add_l	arm_rot_l	elbow_flex_l	pro_sup_l	wrist_flex_l	wrist_dev_l
      0.95000000	     -1.36085243	      3.06414215	     -3.81559929	      0.54388905	      0.95860914	     -0.95466764	     -2.05513925	     -1.37191070	    -15.64321314	    -14.42839370	     -0.25182298	     11.08230994	      1.05455524	     -6.95670911	     24.36100239	      3.35346768	     20.68058811	    -19.15749151	     -0.33436130	      1.88630324	     11.52817082	     13.36856734	     -2.86471931	     -2.84823940	      4.54144737	      8.57107418	    -14.71634328	     -8.78031574	     37.53885267	     89.95437384	      0.00000000	      0.00000000	     -8.78652043	     10.23726704	      8.10065261	     10.01354492	     89.95437384	      0.00000000	      0.00000000
      0.96000000	     -0.88719030	      3.28918783	     -4.21004306	      0.55604122	      0.95753789	     -0.95392580	     -3.54305393	     -1.85491950	    -16.67477209	    -14.00977288	     -0.24451666	     10.52341736	      2.58162015	    -14.85918482	     23.88061700	      3.04628743	     21.77609956	    -16.17314722	     -0.28227467	      0.48500299	      9.87652377	     10.28364716	     -3.23084812	     -3.11712189	      4.96769401	      9.10126250	    -15.14771133	     -8.37177654	     38.36072478	     89.95437384	      0.00000000	      0.00000000	     -9.89111302	     10.27066331	      6.39087549	      9.27461386	     89.95437384	      0.00000000	      0.00000000
      0.97000000	     -0.82363724	      3.18760002	     -4.67691655	      0.56739238	      0.95579334	     -0.95293602	     -4.43288465	     -1.81109941	    -16.74176765	    -13.88060394	     -0.24226224	     10.85884373	      2.81909070	    -15.03500135	     24.02104716	      3.19870905	     22.53078030	    -13.71203511	     -0.23932016	     -0.16468160	      7.90182974	     10.22294210	     -3.27296546	     -3.00834567	      5.46435458	      9.77761296	    -15.60242440	     -7.93947217	     38.90761707	     89.95437384	      0.00000000	      0.00000000	    -10.86341729	     10.13839823	      5.88125669	      8.49438402	     89.95437384	      0.00000000	      0.00000000
      0.98000000	     -0.70146844	      3.05714521	     -5.05850305	      0.57908144	      0.95400796	     -0.95207494	     -5.49988430	     -1.77998723	    -17.14801270	    -13.60396646	     -0.23743401	     11.18924183	      3.65947350	    -15.43585358	     24.12505549	      3.42098603	     23.49585819	    -11.54264230	     -0.20145711	     -0.96917982	      4.99029433	      9.92773362	     -3.35548841	     -2.87049445	      5.93197162	     10.35085419	    -15.95498861	     -7.94968430	     39.47264465	     89.95437384	      0.00000000	      0.00000000	    -11.84970230	     10.05190526	      5.03059466	      7.84616172	     89.95437384	      0.00000000	      0.00000000
      0.99000000	     -1.02210897	      2.79544301	     -5.37452040	      0.59008519	      0.95144979	     -0.95146006	     -5.91183437	     -1.55383976	    -17.26577515	    -13.59378482	     -0.23725630	     11.57292174	      3.91692473	    -15.61170884	     24.80035203	      3.65173044	     23.24898517	     -9.62947952	     -0.16806612	     -1.55117032	      3.33187954	      9.96465041	     -3.01501852	     -2.53971915	      6.27882808	     10.99028829	    -16.28063949	     -7.92571641	     39.82715149	     89.95437384	      0.00000000	      0.00000000	    -12.76750716	      9.86144998	      4.83532665	      7.16545145	     89.95437384	      0.00000000	      0.00000000
